<svg width="521" height="540" viewBox="0 0 521 540" fill="none" xmlns="http://www.w3.org/2000/svg">
<path fill-rule="evenodd" clip-rule="evenodd" d="M160.812 136.319V136.422C160.833 136.85 160.855 137.278 160.887 137.7C161.075 146.587 162.167 152.825 164.425 157.948C167.522 164.815 172.823 170.631 179.753 174.773C186.28 178.672 193.957 180.822 201.366 180.822C214.833 180.822 226 175.385 233.667 165.085C239.199 157.601 242 149.278 242 140.348L241.946 116.229H218.839V139.433C218.839 149.473 211 157.645 201.366 157.645C194.301 157.645 190.258 153.865 188.468 151.59C185.893 148.13 184.592 146.365 184.113 136.265V67.8537V67.7508C183.968 64.7507 183.903 60.9925 183.903 56.2595C183.903 35.3189 185.059 33.7815 188.454 29.2626L188.457 29.2589C190.242 26.9898 194.29 23.1829 201.376 23.1829C207.989 23.1829 213.462 26.5458 216.376 32.4051C217.296 34.2518 217.78 36.4233 217.78 38.6869V64.5124L241.807 64.4637L241.844 39.9324C241.855 36.0442 241.253 32.2535 240.054 28.674C234.113 10.9876 219.296 0 201.376 0C185.414 0 170.565 9.13019 164.414 22.7551C162.167 27.9917 161.081 34.2734 160.893 43.122C160.737 45.1796 160.737 47.378 160.737 49.506V49.5067V62.8391C160.737 64.6641 160.742 66.3049 160.817 67.897V136.319H160.812ZM140.081 80.6717V165.556V193.044H241.521V216.72H116.699V165.556V80.6717V0.189515H140.081V79.789V80.6717ZM72.0376 138.384H45.8279V116.538H95.4301V138.513V171.509C95.4301 182.719 91.6559 192.407 85.6236 200.573C77.1344 211.972 64.3118 219.001 47.715 219.001C30.1774 219.001 11.8817 208.934 4.33871 192.217C1.32258 185.377 0.376347 177.211 0.188175 168.092C0.150541 167.572 0.123656 167.041 0.0967743 166.511V81.6258C0.00537651 79.6167 0 77.5156 0 75.4145V58.887C0 56.2281 3.28466e-06 53.5692 0.188175 51.0998C0.376347 41.9804 1.32258 33.8141 4.33871 26.7851C11.8817 10.0681 30.1774 0.190577 47.715 0.190577C70.0591 0.190577 86.5053 14.1458 93.1451 33.917C94.5591 38.1301 95.2419 42.5598 95.2258 47.0058L95.1881 65.1146L70.7258 65.1633V45.4679C70.7258 42.3541 70.086 39.2565 68.6989 36.4731C64.7096 28.4638 57.0484 23.5522 47.715 23.5522C39.2258 23.5522 33.1935 27.5432 29.6075 32.1029C24.8925 38.3738 23.3817 40.8432 23.3817 67.2482C23.3817 73.1292 23.4624 77.8134 23.6452 81.6258V166.511C24.2742 179.811 26.086 182.356 29.6021 187.083C33.1882 191.643 39.2258 195.634 47.7097 195.634C61.4785 195.634 72.0376 183.856 72.0376 170.366V138.384ZM278 118H521V282H495V144H304V263H26V439H201V514H495V484H521V540H175V465H0V237H278V118Z" fill="#EF3340"/>
</svg>
