<svg width="197" height="178" viewBox="0 0 197 178" fill="none" xmlns="http://www.w3.org/2000/svg">
<path d="M114.032 134.562V65.5688V64.8513V0.154053H94.9985V65.5688V134.562V176.147H196.61V156.904H114.032V134.562Z" fill="#EF3340"/>
<path d="M37.3018 112.476H58.6422V138.471C58.6422 149.435 50.0465 159.009 38.838 159.009C31.9317 159.009 27.0168 155.765 24.0976 152.059C21.2353 148.216 19.7604 146.147 19.2483 135.337V66.3443C19.0995 63.2456 19.0339 59.4384 19.0339 54.6584C19.0339 33.1968 20.2637 31.1897 24.102 26.0928C27.0212 22.3867 31.9317 19.1429 38.8424 19.1429C46.4402 19.1429 52.6769 23.135 55.9243 29.6448C57.0535 31.9071 57.5743 34.4248 57.5743 36.9556V52.9638L77.4879 52.9242L77.5185 38.2056C77.5316 34.592 76.9758 30.9916 75.8247 27.5673C70.4196 11.4975 57.0316 0.154907 38.8424 0.154907C24.5659 0.154907 9.67231 8.18319 3.53192 21.7705C1.07665 27.4837 0.306365 34.1211 0.153184 41.5332C2.67388e-06 43.5402 0 45.7014 0 47.8625V61.2958C0 63.0036 0.00437674 64.7113 0.0787791 66.3443V135.337C0.100662 135.769 0.122548 136.2 0.153184 136.623C0.306365 144.035 1.07665 150.672 3.53192 156.231C9.67231 169.819 24.5659 178.001 38.8424 178.001C52.353 178.001 62.7912 172.288 69.7019 163.023C74.6124 156.385 77.6848 148.511 77.6848 139.4V112.582V94.7206H37.3062V112.476H37.3018Z" fill="#EF3340"/>
<path d="M130.909 110.798V110.882C130.926 111.23 130.944 111.577 130.97 111.921C131.123 119.144 132.012 124.214 133.85 128.378C136.371 133.959 140.686 138.686 146.328 142.053C151.641 145.222 157.891 146.97 163.922 146.97C174.885 146.97 183.975 142.551 190.216 134.179C194.72 128.096 197 121.331 197 114.073L196.956 94.4688H178.146V113.329C178.146 121.49 171.765 128.131 163.922 128.131C158.171 128.131 154.88 125.059 153.422 123.21C151.326 120.398 150.267 118.963 149.877 110.754V55.1505V55.0669C149.759 52.6284 149.706 49.5738 149.706 45.7269C149.706 28.702 150.647 27.4564 153.413 23.7812C154.866 21.9369 158.162 18.8427 163.93 18.8427C169.314 18.8427 173.769 21.576 176.141 26.3384C176.89 27.8393 177.283 29.6043 177.283 31.4441V52.4348L196.843 52.3952L196.873 32.4565C196.882 29.2962 196.392 26.2152 195.416 23.3058C190.58 8.9306 178.518 0 163.93 0C150.936 0 138.848 7.42088 133.841 18.495C132.012 22.7512 131.128 27.8569 130.975 35.0489C130.848 36.7215 130.848 38.5085 130.848 40.2383V51.0747C130.848 52.558 130.852 53.8917 130.913 55.1857V110.798H130.909Z" fill="#EF3340"/>
</svg>
